<svg width="32" height="32" viewBox="0 0 32 32" fill="none" xmlns="http://www.w3.org/2000/svg">
<path d="M15.8871 2.45007C14.4371 2.83757 14.1996 3.03757 8.14964 9.05007C4.96214 12.2251 2.18714 15.0751 1.98714 15.4001C0.399635 17.8626 0.799635 20.7376 3.18714 23.9376C4.12464 25.2126 6.77464 27.8751 7.99964 28.7751C11.0621 31.0501 13.5121 31.5376 15.9871 30.3501C16.7246 30.0001 17.3871 29.3751 22.3496 24.4501C26.7121 20.1126 27.8746 19.0126 27.8121 19.3126C27.6496 20.0251 27.2246 20.7501 26.4996 21.5501C25.6746 22.4626 25.2996 23.2751 25.4246 23.9126C25.6121 24.9251 27.2371 26.1001 28.2621 25.9626C28.9121 25.8751 29.4246 25.4001 29.6871 24.6376C29.9996 23.7376 30.0621 21.7751 29.8246 20.3126C29.3996 17.7751 29.3746 17.3126 29.5621 16.0001C29.9496 13.2126 29.1121 11.1751 26.2621 7.93757C24.4246 5.86257 22.1371 3.98757 20.4121 3.12507C18.7496 2.30007 17.2621 2.07507 15.8871 2.45007ZM18.4746 3.88757C19.4121 4.11257 21.2496 5.05007 22.3871 5.88757C23.6996 6.86257 25.2871 8.45007 26.1246 9.65007C26.8246 10.6251 27.6246 12.1251 27.6246 12.4376C27.6246 13.1001 25.5496 13.3626 22.0121 13.1501C19.5371 13.0001 17.4996 12.7376 16.9746 12.5001C16.6621 12.3501 15.9871 11.3626 15.3871 10.1626C14.2996 7.97507 14.1996 5.56257 15.1621 4.51257C15.7996 3.81257 17.1121 3.56257 18.4746 3.88757ZM13.1121 7.72507C13.2996 9.48757 13.7621 10.8126 14.6746 12.1876C15.5371 13.4876 17.7746 15.7876 19.0121 16.6626C20.7621 17.9001 22.8371 18.7126 24.5246 18.8376L25.4746 18.9126L20.9746 23.3626C18.0621 26.2376 16.2246 27.9751 15.7496 28.2626C13.9746 29.3501 11.8996 29.1876 9.54964 27.7501C7.03714 26.2251 4.33714 23.2751 3.32464 20.9501C2.97464 20.1376 2.93714 19.9501 2.93714 18.6876C2.93714 16.5126 2.87464 16.6001 8.36214 11.0626C10.8746 8.51257 12.9496 6.43757 12.9621 6.43757C12.9746 6.43757 13.0496 7.01257 13.1121 7.72507Z" fill="#303841"/>
</svg>
