<svg width="40" height="40" viewBox="0 0 40 40" fill="none" xmlns="http://www.w3.org/2000/svg">
<path d="M20.6239 11.4525C17.2052 11.4525 13.7877 11.0588 10.4702 10.2813C10.1339 10.2025 9.92517 9.86752 10.0039 9.53002C10.0827 9.19502 10.4102 8.98627 10.7564 9.06377C17.9977 10.7613 25.6939 10.5475 32.8539 8.44127C33.1914 8.34627 33.5339 8.53252 33.6302 8.86377C33.7277 9.19627 33.5389 9.54252 33.2077 9.64002C29.1189 10.8425 24.8852 11.4525 20.6239 11.4525Z" fill="#303841"/>
<path d="M33.0307 32.9525C32.9719 32.9525 32.9132 32.9437 32.8532 32.9262C24.9044 30.5875 16.3444 30.5875 8.39567 32.9262C8.05942 33.02 7.71567 32.835 7.61942 32.5038C7.52192 32.1713 7.71067 31.825 8.04192 31.7275C16.2232 29.32 25.0269 29.32 33.2082 31.7275C33.5394 31.825 33.7282 32.1713 33.6307 32.5038C33.5507 32.7775 33.3007 32.9525 33.0307 32.9525Z" fill="#303841"/>
<path d="M19.8602 38.2985C19.7377 38.2985 19.6164 38.2635 19.5077 38.1898C13.6739 34.2085 10.1914 27.6623 10.1914 20.6785C10.1914 15.0198 12.4177 9.69355 16.4627 5.68105C16.7089 5.4348 17.1052 5.4398 17.3464 5.68355C17.5902 5.92855 17.5877 6.3248 17.3439 6.5673C13.5377 10.3435 11.4414 15.3548 11.4414 20.6785C11.4414 27.2485 14.7202 33.4098 20.2139 37.1573C20.4989 37.351 20.5714 37.741 20.3777 38.026C20.2552 38.2035 20.0589 38.2985 19.8602 38.2985Z" fill="#303841"/>
<path d="M21.4411 38.2987C21.2424 38.2987 21.0461 38.2037 20.9249 38.0262C20.7311 37.74 20.8036 37.3512 21.0886 37.1575C26.5824 33.41 29.8611 27.2487 29.8611 20.6787C29.8611 14.1087 26.5824 7.94745 21.0886 4.19995C20.8036 4.0062 20.7311 3.6162 20.9249 3.3312C21.1199 3.0462 21.5099 2.9762 21.7936 3.16745C27.6274 7.1487 31.1099 13.6949 31.1099 20.6787C31.1099 27.6625 27.6274 34.2087 21.7936 38.19C21.6861 38.2625 21.5636 38.2987 21.4411 38.2987Z" fill="#303841"/>
<path d="M20.624 38.1126C20.279 38.1126 19.999 37.8326 19.999 37.4876V3.87012C19.999 3.52512 20.279 3.24512 20.624 3.24512C20.969 3.24512 21.249 3.52512 21.249 3.87012V37.4876C21.249 37.8339 20.969 38.1126 20.624 38.1126Z" fill="#303841"/>
<path d="M38.0579 21.3037H5.69043C5.34543 21.3037 5.06543 21.0237 5.06543 20.6787C5.06543 20.3337 5.34543 20.0537 5.69043 20.0537H38.0592C38.4042 20.0537 38.6842 20.3337 38.6842 20.6787C38.6842 21.0237 38.4042 21.3037 38.0579 21.3037Z" fill="#303841"/>
<path d="M20.624 38.8037C10.6303 38.8037 2.49902 30.6725 2.49902 20.6787C2.49902 16.2775 4.09652 12.03 6.99902 8.72246C7.22652 8.46246 7.62027 8.43746 7.88152 8.66496C8.14027 8.89246 8.16527 9.28746 7.93902 9.54746C5.23777 12.6262 3.74902 16.58 3.74902 20.6787C3.74902 29.9837 11.319 37.5537 20.624 37.5537C29.929 37.5537 37.499 29.9837 37.499 20.6787C37.499 11.3737 29.929 3.80371 20.624 3.80371C16.7765 3.80371 13.154 5.06371 10.1503 7.44746C9.88027 7.66246 9.48777 7.61871 9.27277 7.34621C9.05777 7.07621 9.10277 6.68371 9.37402 6.46871C12.6003 3.90746 16.4903 2.55371 20.624 2.55371C30.6178 2.55371 38.749 10.685 38.749 20.6787C38.749 30.6725 30.6178 38.8037 20.624 38.8037Z" fill="#303841"/>
</svg>
